<?xml version="1.0" encoding="UTF-8"?>
<svg xmlns="http://www.w3.org/2000/svg"
     viewBox="-2 -2 72.45 28.2"
     width="72.45"
     height="28.2"
     preserveAspectRatio="xMinYMid meet"
     role="img"
     aria-label="DVG logo">
  <title>DVG logo</title>
  <path d="m 0,0.48754003 h 6.8017987 q 6.5858693,0 8.8963213,0.40150354 2.332045,0.40150363 3.541253,1.31922603 1.209209,0.9177224 1.511512,2.050536 0.302302,1.1184742 0.302302,4.4165389 v 8.1304475 q 0,3.125992 -0.453453,4.187109 -0.431861,1.046776 -1.533104,1.649031 -1.101244,0.587916 -2.72072,0.831687 -1.619475,0.22943 -4.88002,0.22943 H 0 Z M 9.090658,4.4595574 V 19.731032 q 1.964964,0 2.418418,-0.516219 0.453453,-0.530558 0.453453,-2.853543 V 7.3417793 q 0,-1.5773354 -0.151151,-2.0218572 Q 11.660227,4.8754004 11.120402,4.6746485 10.580576,4.4595574 9.090658,4.4595574 Z" fill="#000000"/>
  <path d="M 46.036301,0.48754003 41.415396,23.703049 H 27.617462 L 22.37036,0.48754003 h 9.587297 Q 33.620319,10.080607 34.332888,16.705416 35.045458,10.00891 35.822806,4.8037033 l 0.626197,-4.31616327 z" fill="#000000"/>
  <path d="M 68.449845,9.0338302 H 59.359186 V 6.9259364 q 0,-1.9931784 -0.259116,-2.4950579 -0.259116,-0.5018794 -1.230802,-0.5018794 -0.842127,0 -1.144429,0.4301824 -0.302303,0.4301823 -0.302303,2.2082696 V 17.709175 q 0,1.562996 0.302303,2.064875 0.302302,0.48754 1.209208,0.48754 0.993278,0 1.338767,-0.559237 0.367082,-0.559237 0.367082,-2.17959 V 14.769595 H 57.804489 V 11.2421 h 10.645356 v 12.460949 h -5.722149 l -0.842127,-1.663372 q -0.9285,1.075457 -2.353639,1.620354 -1.403546,0.530558 -3.325324,0.530558 -2.288859,0 -4.297009,-0.73131 Q 49.92304,22.71363 48.886575,21.623834 47.850111,20.534039 47.590994,19.343868 47.331878,18.139357 47.331878,15.744675 V 8.8474174 q 0,-3.3267435 0.539825,-4.8323818 Q 48.411529,2.5093972 50.959505,1.2618683 53.529073,0 57.58856,0 q 3.994706,0 6.629053,1.0897954 2.634349,1.0897953 3.433289,2.5954337 0.798943,1.4912989 0.798943,4.344842 z" fill="#000000"/>
</svg>
